<svg width="141" height="32" viewBox="0 0 141 32" fill="none" xmlns="http://www.w3.org/2000/svg">
<path d="M5.21906 18.1036C4.39318 15.8346 5.64512 13.3535 8.0147 12.5627C10.3843 11.7719 12.9754 12.9707 13.8013 15.2397L13.9896 15.7541L17.0361 9.05872C18.0395 6.85552 20.7178 5.84741 23.0187 6.80822C24.1139 7.26571 24.9259 8.08683 25.3682 9.05872L28.4154 15.7541L32.6297 4.2643C33.4556 1.99457 36.0467 0.796521 38.4163 1.58734C40.7859 2.37816 42.0378 4.85926 41.2119 7.12824L33.1832 29.0169C32.7903 30.1484 31.9173 31.1226 30.6855 31.6362C28.3846 32.597 25.7063 31.5889 24.7028 29.3857L21.2017 21.6919L17.7006 29.3857L17.6999 29.385C17.2113 30.4574 16.2758 31.3398 15.03 31.7552C12.6605 32.546 10.0694 31.3472 9.24348 29.0783L5.21752 18.1029L5.21906 18.1036Z" fill="#FFCB00"/>
<path fill-rule="evenodd" clip-rule="evenodd" d="M6.57657 0C5.88727 0.71308 5.14169 0.839355 4.39533 1.6282C3.92875 1.29766 3.46296 0.445675 2.99639 0.622459C2.88072 1.58437 2.35397 2.10284 2.23831 3.15835C1.65685 3.15092 0.752623 2.72307 0.484558 3.12641C0.985518 3.96948 0.880793 4.6833 1.4388 5.60139C0.963635 5.92079 -0.0320321 6.07901 0.000792096 6.55514C0.927685 6.95699 1.28406 7.59282 2.30396 8.02438C2.11717 8.54805 1.40911 9.2329 1.73031 9.5991C2.72911 9.40671 3.40982 9.7224 4.50162 9.50105C4.67433 10.0292 4.52506 10.9785 5.01117 11.0958C5.70048 10.3827 6.44606 10.2565 7.19242 9.46762C7.65899 9.79817 8.12478 10.6501 8.59135 10.4734C8.70702 9.51145 9.23377 8.99298 9.34944 7.93747C9.93089 7.9449 10.8351 8.37275 11.1032 7.96941C10.6022 7.12634 10.707 6.41252 10.1489 5.49443C10.6241 5.17503 11.6198 5.01682 11.587 4.54069C10.6601 4.13884 10.3037 3.50301 9.28379 3.07144C9.47057 2.54778 10.1786 1.86292 9.85743 1.49673C8.85864 1.68911 8.17793 1.37342 7.08613 1.59477C6.91341 1.06665 7.06268 0.117361 6.57657 0Z" fill="#FFCB00"/>
<path d="M46.4662 10.0407C46.4662 9.66913 46.7813 9.36792 47.1699 9.36792V9.36792C47.5585 9.36792 47.8735 9.66913 47.8735 10.0407V21.9839C47.8735 22.3554 47.5585 22.6566 47.1699 22.6566V22.6566C46.7813 22.6566 46.4662 22.3554 46.4662 21.9839V10.0407Z" fill="white"/>
<path fill-rule="evenodd" clip-rule="evenodd" d="M99.7644 22.5137C100.062 22.2934 100.098 21.8991 99.8447 21.633L94.4963 16.0134L99.845 10.3935C100.098 10.1273 100.062 9.73301 99.7647 9.51278C99.467 9.29255 99.0203 9.32979 98.767 9.59597L93.5777 15.0483L88.3884 9.59593C88.1351 9.32975 87.6884 9.29251 87.3907 9.51274C87.093 9.73297 87.0571 10.1273 87.3104 10.3934L92.6592 16.0134L87.3107 21.633C87.0574 21.8992 87.0933 22.2935 87.391 22.5137C87.6887 22.734 88.1354 22.6967 88.3887 22.4305L93.5777 16.9785L98.7667 22.4305C99.02 22.6967 99.4667 22.7339 99.7644 22.5137Z" fill="white"/>
<path fill-rule="evenodd" clip-rule="evenodd" d="M84.5243 9.98813C84.5243 9.6456 84.2339 9.36792 83.8757 9.36792L75.322 9.36792C74.9637 9.36792 74.6733 9.6456 74.6733 9.98813C74.6733 9.99706 74.6735 10.0059 74.6739 10.0148C74.6735 10.0235 74.6733 10.0323 74.6733 10.0411V15.4107L74.6733 15.4193L74.6733 15.4279V21.9843C74.6733 21.9928 74.6735 22.0014 74.6738 22.0099C74.6735 22.0186 74.6733 22.0272 74.6733 22.036C74.6733 22.3785 74.9637 22.6562 75.322 22.6562H75.342C75.3536 22.6567 75.3653 22.657 75.377 22.657C75.3887 22.657 75.4004 22.6567 75.412 22.6562H83.8757C84.2339 22.6562 84.5243 22.3785 84.5243 22.036C84.5243 21.6935 84.2339 21.4158 83.8757 21.4158L76.0806 21.4158V16.0395L83.8757 16.0395C84.2339 16.0395 84.5243 15.7618 84.5243 15.4193C84.5243 15.0767 84.2339 14.7991 83.8757 14.7991L76.0806 14.7991V10.6083L83.8757 10.6083C84.2339 10.6083 84.5243 10.3307 84.5243 9.98813Z" fill="white"/>
<path fill-rule="evenodd" clip-rule="evenodd" d="M50.9513 9.37822C50.5861 9.49538 50.4048 9.86805 50.5462 10.2106L55.4901 22.1832C55.5861 22.4158 55.8062 22.5746 56.0519 22.6161C56.3958 22.6865 56.7597 22.5063 56.891 22.1878L61.2744 11.5507L65.6649 22.1832C65.7606 22.415 65.9796 22.5736 66.2243 22.6156C66.5688 22.6872 66.9338 22.5069 67.0654 22.1878L72.0006 10.2119C72.1418 9.86922 71.9603 9.4963 71.5951 9.37892C71.23 9.26155 70.8196 9.44418 70.6784 9.78683L66.3654 20.2527L62.0435 9.78635C61.9205 9.48844 61.5938 9.31142 61.2706 9.34739C60.9493 9.31399 60.626 9.49062 60.504 9.78683L56.1908 20.2533L51.8687 9.78635C51.7272 9.44379 51.3165 9.26107 50.9513 9.37822Z" fill="white"/>
<path d="M106.616 22.5V10.026H108.02V21.276H113.852V22.5H106.616ZM115.468 22.5C115.516 21.396 115.57 20.298 115.63 19.206C115.69 18.114 115.756 17.046 115.828 16.002C115.9 14.946 115.978 13.92 116.062 12.924C116.146 11.916 116.242 10.95 116.35 10.026H117.61C117.958 10.602 118.324 11.274 118.708 12.042C119.104 12.798 119.5 13.596 119.896 14.436C120.292 15.264 120.67 16.08 121.03 16.884C121.402 17.688 121.732 18.414 122.02 19.062C122.308 18.414 122.632 17.688 122.992 16.884C123.364 16.08 123.748 15.264 124.144 14.436C124.54 13.596 124.936 12.798 125.332 12.042C125.728 11.274 126.094 10.602 126.43 10.026H127.618C127.726 10.95 127.822 11.916 127.906 12.924C128.002 13.92 128.08 14.946 128.14 16.002C128.212 17.046 128.278 18.114 128.338 19.206C128.41 20.298 128.47 21.396 128.518 22.5H127.114C127.066 21.276 127.012 20.076 126.952 18.9C126.904 17.712 126.844 16.566 126.772 15.462C126.7 14.358 126.616 13.314 126.52 12.33C126.4 12.558 126.208 12.936 125.944 13.464C125.692 13.98 125.404 14.58 125.08 15.264C124.756 15.936 124.426 16.626 124.09 17.334C123.766 18.042 123.466 18.696 123.19 19.296C122.926 19.896 122.722 20.37 122.578 20.718H121.372C121.228 20.37 121.018 19.896 120.742 19.296C120.478 18.696 120.178 18.042 119.842 17.334C119.518 16.626 119.194 15.936 118.87 15.264C118.546 14.58 118.252 13.98 117.988 13.464C117.736 12.936 117.55 12.558 117.43 12.33C117.334 13.314 117.25 14.358 117.178 15.462C117.106 16.566 117.04 17.712 116.98 18.9C116.932 20.076 116.884 21.276 116.836 22.5H115.468ZM134.173 22.77C133.201 22.77 132.391 22.662 131.743 22.446C131.107 22.23 130.669 22.05 130.429 21.906L130.879 20.718C131.131 20.862 131.533 21.036 132.085 21.24C132.649 21.444 133.345 21.546 134.173 21.546C135.121 21.546 135.853 21.378 136.369 21.042C136.885 20.694 137.143 20.148 137.143 19.404C137.143 18.828 136.999 18.378 136.711 18.054C136.435 17.718 136.063 17.448 135.595 17.244C135.139 17.028 134.635 16.812 134.083 16.596C133.411 16.332 132.823 16.056 132.319 15.768C131.827 15.468 131.443 15.108 131.167 14.688C130.903 14.256 130.771 13.716 130.771 13.068C130.771 12.348 130.933 11.742 131.257 11.25C131.581 10.758 132.049 10.386 132.661 10.134C133.273 9.882 133.999 9.756 134.839 9.756C135.535 9.756 136.177 9.846 136.765 10.026C137.365 10.194 137.827 10.38 138.151 10.584L137.683 11.754C137.335 11.514 136.909 11.322 136.405 11.178C135.913 11.034 135.385 10.962 134.821 10.962C134.053 10.962 133.423 11.118 132.931 11.43C132.439 11.742 132.193 12.252 132.193 12.96C132.193 13.44 132.313 13.83 132.553 14.13C132.793 14.43 133.123 14.682 133.543 14.886C133.963 15.09 134.437 15.3 134.965 15.516C135.649 15.78 136.261 16.062 136.801 16.362C137.353 16.65 137.791 17.028 138.115 17.496C138.439 17.952 138.601 18.57 138.601 19.35C138.601 20.106 138.421 20.736 138.061 21.24C137.701 21.744 137.191 22.128 136.531 22.392C135.871 22.644 135.085 22.77 134.173 22.77Z" fill="#FFCC00"/>
</svg>
